<svg width="195" height="195" viewBox="0 0 195 195" fill="none" xmlns="http://www.w3.org/2000/svg">
<g filter="url(#filter0_i_502_155)">
<circle cx="97.5" cy="97.5" r="82.5" fill="url(#paint0_radial_502_155)"/>
</g>
<circle cx="97.5" cy="97.5" r="83" stroke="#272829"/>
<g filter="url(#filter1_dd_502_155)">
<path d="M97.5 158C64.0868 158 37 130.913 37 97.5V97.5C37 64.0868 64.0868 37 97.5 37V37C130.913 37 158 64.0868 158 97.5V97.5C158 130.913 130.913 158 97.5 158V158Z" fill="url(#paint1_linear_502_155)"/>
<path d="M157.5 97.5C157.5 130.637 130.637 157.5 97.5 157.5C64.3629 157.5 37.5 130.637 37.5 97.5C37.5 64.3629 64.3629 37.5 97.5 37.5C130.637 37.5 157.5 64.3629 157.5 97.5Z" stroke="#2C3036"/>
</g>
<path d="M119.812 73.125H79.1875C76.3829 73.125 74.1094 75.3986 74.1094 78.2031V117.812C74.1094 120.617 76.3829 122.891 79.1875 122.891H119.812C122.617 122.891 124.891 120.617 124.891 117.812V78.2031C124.891 75.3986 122.617 73.125 119.812 73.125Z" fill="url(#paint2_linear_502_155)"/>
<path d="M114.03 73.125H89.9968V89.5995L104.845 117.812H124.891V93.7605L114.03 73.125Z" fill="url(#paint3_linear_502_155)"/>
<path d="M74.1094 113.75V117.812C74.1099 119.159 74.6451 120.45 75.5973 121.403C76.5495 122.355 77.8409 122.89 79.1875 122.891H119.812C121.159 122.89 122.45 122.355 123.403 121.403C124.355 120.45 124.89 119.159 124.891 117.812V113.75H74.1094Z" fill="url(#paint4_linear_502_155)"/>
<path d="M114.177 73.5424L110.477 68.4643C110.388 68.3428 110.273 68.2425 110.141 68.1708C110.008 68.099 109.861 68.0576 109.711 68.0494C109.561 68.0412 109.41 68.0666 109.271 68.1236C109.131 68.1806 109.006 68.2678 108.905 68.379L99.5001 78.7241L90.0954 68.379C89.9938 68.2678 89.8688 68.1806 89.7293 68.1236C89.5899 68.0666 89.4395 68.0412 89.2891 68.0494C89.1387 68.0576 88.992 68.099 88.8595 68.1708C88.7271 68.2425 88.6122 68.3428 88.5232 68.4643L84.8233 73.5424C84.7281 73.673 84.6655 73.8245 84.6406 73.9841C84.6156 74.1438 84.6292 74.3072 84.6801 74.4605L89.3957 88.6793C89.4487 88.8389 89.5406 88.9828 89.663 89.0982C89.7854 89.2136 89.9345 89.2968 90.0969 89.3404C90.2594 89.3839 90.4301 89.3865 90.5938 89.3479C90.7575 89.3093 90.909 89.2307 91.0349 89.1191L99.5001 81.5933L107.965 89.1191C108.091 89.2309 108.243 89.3098 108.406 89.3485C108.57 89.3873 108.741 89.3848 108.904 89.3412C109.066 89.2976 109.215 89.2142 109.338 89.0987C109.46 88.9832 109.552 88.8391 109.605 88.6793L114.32 74.4605C114.371 74.3072 114.385 74.144 114.36 73.9843C114.335 73.8246 114.272 73.6731 114.177 73.5424Z" fill="url(#paint5_linear_502_155)"/>
<path d="M90.0953 68.379C89.9996 68.2757 89.8832 68.1936 89.7537 68.1382C89.6243 68.0827 89.4846 68.0551 89.3438 68.057V88.5239L89.3945 88.6793C89.4475 88.8391 89.5394 88.9832 89.6619 89.0987C89.7843 89.2142 89.9336 89.2975 90.0962 89.3411C90.2588 89.3847 90.4296 89.3872 90.5935 89.3485C90.7573 89.3097 90.9089 89.2309 91.0348 89.1191L99.5 81.5933V78.7242L90.0953 68.379Z" fill="url(#paint6_linear_502_155)"/>
<path d="M110.58 68.64C110.499 68.4629 110.369 68.3129 110.205 68.2078C110.042 68.1026 109.851 68.0468 109.656 68.0469H89.3438C89.1491 68.0468 88.9586 68.1026 88.7947 68.2077C88.6309 68.3129 88.5008 68.4628 88.4198 68.6398C88.3388 68.8168 88.3103 69.0134 88.3378 69.2061C88.3653 69.3987 88.4476 69.5795 88.5749 69.7267L98.7312 81.4785C98.8265 81.589 98.9446 81.6776 99.0772 81.7383C99.2099 81.7991 99.3541 81.8305 99.5 81.8305C99.6459 81.8305 99.7901 81.7991 99.9228 81.7383C100.055 81.6776 100.174 81.589 100.269 81.4785L110.425 69.7267C110.552 69.5794 110.634 69.3987 110.662 69.206C110.689 69.0134 110.662 68.8169 110.58 68.64Z" fill="url(#paint7_linear_502_155)"/>
<path d="M92.3906 74.1406L98.7312 81.4785C98.8265 81.589 98.9445 81.6776 99.0772 81.7383C99.2099 81.7991 99.3541 81.8305 99.5 81.8305C99.6459 81.8305 99.7901 81.7991 99.9228 81.7383C100.055 81.6776 100.173 81.589 100.269 81.4785L106.609 74.1406H92.3906Z" fill="url(#paint8_linear_502_155)"/>
<path d="M119.812 73.125H113.873L110.477 68.4643C110.388 68.3423 110.273 68.2417 110.141 68.1697C110.009 68.0976 109.862 68.056 109.711 68.0479C109.693 68.0479 109.676 68.058 109.656 68.058V68.0469H89.3438V68.057C89.3245 68.057 89.3082 68.0469 89.2889 68.0489C89.1383 68.0571 88.9915 68.0987 88.859 68.1707C88.7266 68.2427 88.6118 68.3434 88.5231 68.4653L85.1269 73.125H79.1875C77.8412 73.1266 76.5505 73.6621 75.5985 74.6141C74.6465 75.5661 74.111 76.8568 74.1094 78.2031V117.812C74.111 119.159 74.6465 120.45 75.5985 121.401C76.5505 122.353 77.8412 122.889 79.1875 122.891H119.812C121.159 122.889 122.45 122.353 123.401 121.401C124.353 120.45 124.889 119.159 124.891 117.812V78.2031C124.889 76.8568 124.353 75.5661 123.401 74.6141C122.45 73.6621 121.159 73.1266 119.812 73.125ZM112.228 74.3163L108.162 86.5749L100.942 80.1572L109.569 70.6682L112.228 74.3163ZM99.5 78.7241L91.6391 70.0781H107.361L99.5 78.7241ZM89.4301 70.6682L98.0578 80.1572L90.8388 86.5759L86.7722 74.3173L89.4301 70.6682ZM76.1406 117.812V78.2031C76.1414 77.3953 76.4627 76.6208 77.0339 76.0495C77.6051 75.4783 78.3797 75.1571 79.1875 75.1562H84.9105L89.3955 88.6793C89.4486 88.8389 89.5405 88.9828 89.6629 89.0982C89.7853 89.2136 89.9344 89.2968 90.0968 89.3404C90.2592 89.3839 90.43 89.3865 90.5937 89.3479C90.7574 89.3093 90.9089 89.2307 91.0348 89.1191L98.4844 82.4972V120.859H79.1875C78.3797 120.859 77.6051 120.537 77.0339 119.966C76.4627 119.395 76.1414 118.62 76.1406 117.812ZM122.859 117.812C122.859 118.62 122.537 119.395 121.966 119.966C121.395 120.537 120.62 120.859 119.812 120.859H100.516V82.4962L107.965 89.118C108.091 89.2299 108.243 89.3087 108.406 89.3475C108.57 89.3863 108.741 89.3837 108.903 89.3401C109.066 89.2965 109.215 89.2132 109.337 89.0977C109.46 88.9822 109.552 88.838 109.604 88.6783L114.089 75.1562H119.812C120.62 75.1571 121.395 75.4783 121.966 76.0495C122.537 76.6208 122.859 77.3953 122.859 78.2031V117.812Z" fill="url(#paint9_linear_502_155)"/>
<path d="M107.625 101.562H118.797V103.594H107.625V101.562Z" fill="url(#paint10_linear_502_155)"/>
<defs>
<filter id="filter0_i_502_155" x="14" y="14" width="169" height="169" filterUnits="userSpaceOnUse" color-interpolation-filters="sRGB">
<feFlood flood-opacity="0" result="BackgroundImageFix"/>
<feBlend mode="normal" in="SourceGraphic" in2="BackgroundImageFix" result="shape"/>
<feColorMatrix in="SourceAlpha" type="matrix" values="0 0 0 0 0 0 0 0 0 0 0 0 0 0 0 0 0 0 127 0" result="hardAlpha"/>
<feOffset dx="2" dy="2"/>
<feGaussianBlur stdDeviation="2"/>
<feComposite in2="hardAlpha" operator="arithmetic" k2="-1" k3="1"/>
<feColorMatrix type="matrix" values="0 0 0 0 0 0 0 0 0 0 0 0 0 0 0 0 0 0 0.3 0"/>
<feBlend mode="normal" in2="shape" result="effect1_innerShadow_502_155"/>
</filter>
<filter id="filter1_dd_502_155" x="0" y="0" width="195" height="195" filterUnits="userSpaceOnUse" color-interpolation-filters="sRGB">
<feFlood flood-opacity="0" result="BackgroundImageFix"/>
<feColorMatrix in="SourceAlpha" type="matrix" values="0 0 0 0 0 0 0 0 0 0 0 0 0 0 0 0 0 0 127 0" result="hardAlpha"/>
<feOffset dx="7" dy="7"/>
<feGaussianBlur stdDeviation="15"/>
<feColorMatrix type="matrix" values="0 0 0 0 0.121569 0 0 0 0 0.141176 0 0 0 0 0.152941 0 0 0 1 0"/>
<feBlend mode="normal" in2="BackgroundImageFix" result="effect1_dropShadow_502_155"/>
<feColorMatrix in="SourceAlpha" type="matrix" values="0 0 0 0 0 0 0 0 0 0 0 0 0 0 0 0 0 0 127 0" result="hardAlpha"/>
<feOffset dx="-7" dy="-7"/>
<feGaussianBlur stdDeviation="15"/>
<feColorMatrix type="matrix" values="0 0 0 0 0.282353 0 0 0 0 0.313726 0 0 0 0 0.341176 0 0 0 1 0"/>
<feBlend mode="normal" in2="effect1_dropShadow_502_155" result="effect2_dropShadow_502_155"/>
<feBlend mode="normal" in="SourceGraphic" in2="effect2_dropShadow_502_155" result="shape"/>
</filter>
<radialGradient id="paint0_radial_502_155" cx="0" cy="0" r="1" gradientUnits="userSpaceOnUse" gradientTransform="translate(97.5 97.5) rotate(56.3484) scale(99.1083 75.7165)">
<stop stop-color="#2E3134"/>
<stop offset="1" stop-color="#292B2E"/>
</radialGradient>
<linearGradient id="paint1_linear_502_155" x1="-431.286" y1="389.528" x2="-332.028" y2="474.606" gradientUnits="userSpaceOnUse">
<stop stop-color="#2C3036"/>
<stop offset="1" stop-color="#212428"/>
</linearGradient>
<linearGradient id="paint2_linear_502_155" x1="74.1094" y1="98.0078" x2="124.891" y2="98.0078" gradientUnits="userSpaceOnUse">
<stop stop-color="#76CBFF"/>
<stop offset="1" stop-color="#009BED"/>
</linearGradient>
<linearGradient id="paint3_linear_502_155" x1="111.918" y1="100.973" x2="103.971" y2="84.4665" gradientUnits="userSpaceOnUse">
<stop stop-color="#009BED" stop-opacity="0"/>
<stop offset="1" stop-color="#009BED"/>
</linearGradient>
<linearGradient id="paint4_linear_502_155" x1="99.5" y1="113.75" x2="99.5" y2="122.891" gradientUnits="userSpaceOnUse">
<stop stop-color="#009BED" stop-opacity="0"/>
<stop offset="1" stop-color="#009BED"/>
</linearGradient>
<linearGradient id="paint5_linear_502_155" x1="84.6283" y1="78.712" x2="114.372" y2="78.712" gradientUnits="userSpaceOnUse">
<stop stop-color="#D3FFFD"/>
<stop offset="1" stop-color="#9ADFFE"/>
</linearGradient>
<linearGradient id="paint6_linear_502_155" x1="89.3438" y1="78.716" x2="99.5" y2="78.716" gradientUnits="userSpaceOnUse">
<stop stop-color="#6DC6FF" stop-opacity="0"/>
<stop offset="1" stop-color="#69C4FF"/>
</linearGradient>
<linearGradient id="paint7_linear_502_155" x1="88.3282" y1="74.9389" x2="110.672" y2="74.9389" gradientUnits="userSpaceOnUse">
<stop stop-color="#52AEF3"/>
<stop offset="1" stop-color="#0062C7"/>
</linearGradient>
<linearGradient id="paint8_linear_502_155" x1="99.5" y1="74.1406" x2="99.5" y2="81.8299" gradientUnits="userSpaceOnUse">
<stop stop-color="#0062C7" stop-opacity="0"/>
<stop offset="1" stop-color="#0062C7"/>
</linearGradient>
<linearGradient id="paint9_linear_502_155" x1="74.1094" y1="95.4687" x2="124.891" y2="95.4687" gradientUnits="userSpaceOnUse">
<stop stop-color="#002466"/>
<stop offset="1" stop-color="#000E2D"/>
</linearGradient>
<linearGradient id="paint10_linear_502_155" x1="107.625" y1="102.578" x2="118.797" y2="102.578" gradientUnits="userSpaceOnUse">
<stop stop-color="#002466"/>
<stop offset="1" stop-color="#000E2D"/>
</linearGradient>
</defs>
</svg>
