<svg width="195" height="195" viewBox="0 0 195 195" fill="none" xmlns="http://www.w3.org/2000/svg">
<g filter="url(#filter0_i_506_46)">
<circle cx="97.5" cy="97.5" r="82.5" fill="url(#paint0_radial_506_46)"/>
</g>
<circle cx="97.5" cy="97.5" r="83" stroke="#272829"/>
<g filter="url(#filter1_dd_506_46)">
<path d="M97.5 158C64.0868 158 37 130.913 37 97.5V97.5C37 64.0868 64.0868 37 97.5 37V37C130.913 37 158 64.0868 158 97.5V97.5C158 130.913 130.913 158 97.5 158V158Z" fill="url(#paint1_linear_506_46)"/>
<path d="M157.5 97.5C157.5 130.637 130.637 157.5 97.5 157.5C64.3629 157.5 37.5 130.637 37.5 97.5C37.5 64.3629 64.3629 37.5 97.5 37.5C130.637 37.5 157.5 64.3629 157.5 97.5Z" stroke="#2C3036"/>
</g>
<g clip-path="url(#clip0_506_46)">
<path d="M126.6 117.14C126.169 117.855 125.558 118.446 124.83 118.854C124.101 119.262 123.278 119.474 122.443 119.468C121.539 119.473 120.653 119.218 119.89 118.733L120.462 119.121C121.372 119.678 122.076 120.518 122.465 121.511C122.855 122.505 122.91 123.598 122.621 124.626C122.332 125.653 121.716 126.559 120.865 127.204C120.015 127.849 118.977 128.199 117.91 128.2C117.237 128.202 116.572 128.059 115.959 127.781L116.041 127.862C117.149 128.538 117.943 129.626 118.248 130.886C118.554 132.147 118.346 133.478 117.671 134.586L117.654 134.613C117.219 135.332 116.604 135.925 115.87 136.334C115.136 136.742 114.307 136.952 113.467 136.942C112.602 136.942 111.753 136.713 111.006 136.278C111.788 136.918 112.354 137.785 112.624 138.759C112.895 139.733 112.857 140.767 112.517 141.719C112.177 142.671 111.55 143.494 110.724 144.076C109.897 144.658 108.911 144.971 107.9 144.97C106.989 144.973 106.095 144.726 105.316 144.255L82.5941 130.274L69.725 124.422L65.3651 113.177L58.175 109.092C58.308 108.929 58.44 108.745 58.563 108.561L75.731 81.64L79.1721 83.509L90.488 76.421L100.017 78.944L96.2071 93.232L125.007 110.389C126.113 111.074 126.902 112.169 127.2 113.435C127.499 114.701 127.283 116.033 126.6 117.14Z" fill="#FEDD8E"/>
<path d="M126.6 117.14C126.245 117.733 125.765 118.241 125.194 118.629C124.622 119.017 123.973 119.276 123.291 119.387C123.462 118.418 123.339 117.42 122.938 116.521C122.538 115.622 121.878 114.864 121.044 114.342L92.255 97.184L96.065 82.907L89.712 82.355L78.386 89.443L72.738 86.343L75.731 81.643L79.172 83.512L90.488 76.424L100.017 78.947L96.207 93.235L125.007 110.392C126.112 111.077 126.9 112.172 127.199 113.437C127.498 114.702 127.282 116.034 126.6 117.14Z" fill="#FEE9B4"/>
<path d="M112.7 140.936C112.591 141.545 112.373 142.13 112.057 142.662C111.367 143.758 110.273 144.54 109.013 144.838C107.752 145.136 106.424 144.927 105.316 144.255L82.5941 130.274L69.725 124.422L65.3651 113.177L58.175 109.092C58.308 108.929 58.44 108.745 58.563 108.561L61.116 104.561L69.327 109.228L73.6781 120.472L86.5461 126.324L109.28 140.3C110.056 140.771 110.947 141.018 111.854 141.015C112.138 141.009 112.42 140.983 112.7 140.936Z" fill="#FDD367"/>
<path d="M135.078 100.871L125.008 110.389L96.2079 93.232L94.3389 98.92C93.6614 100.99 92.3844 102.813 90.6698 104.157C88.9552 105.501 86.8802 106.305 84.7079 106.468L79.7849 106.59L87.1999 87.655L100.027 78.955H111.394L117.394 75.483L135.078 100.871Z" fill="#FEE9B4"/>
<path d="M120.524 79.965L114.652 83.356H103.275L90.4579 92.047L84.8199 106.447C84.7851 106.464 84.7465 106.471 84.7079 106.468L79.7849 106.6L87.1999 87.645L100.017 78.945H111.394L117.394 75.483L120.524 79.965Z" fill="#FFF3D9"/>
<path d="M135.078 100.871L125.028 110.389L120.167 107.499L131.943 96.367L135.078 100.871Z" fill="#FEDD8E"/>
<path d="M79.16 124.39L75.82 130.08C75.6163 130.423 75.2853 130.671 74.8993 130.77C74.5133 130.869 74.1037 130.812 73.76 130.61L68.07 127.27C67.7284 127.068 67.4808 126.739 67.3815 126.354C67.2822 125.97 67.3391 125.562 67.54 125.22L70.88 119.52C71.082 119.178 71.4112 118.931 71.7955 118.832C72.1797 118.732 72.5876 118.789 72.93 118.99L78.63 122.33C78.9726 122.534 79.2207 122.865 79.32 123.251C79.4193 123.637 79.3618 124.046 79.16 124.39Z" fill="#FEE9B4"/>
<path d="M79.0529 124.47L75.7137 130.161C75.2934 130.878 75.5334 131.799 76.2499 132.22L81.9417 135.559C82.6581 135.979 83.5796 135.739 83.9999 135.023L87.3392 129.331C87.7595 128.615 87.5194 127.693 86.803 127.273L81.1112 123.933C80.3947 123.513 79.4732 123.753 79.0529 124.47Z" fill="#FEE9B4"/>
<path d="M87.2331 129.414L83.8939 135.106C83.4735 135.822 83.7136 136.744 84.43 137.164L90.1218 140.504C90.8383 140.924 91.7598 140.684 92.1801 139.967L95.5193 134.276C95.9397 133.559 95.6996 132.638 94.9832 132.217L89.2914 128.878C88.5749 128.458 87.6534 128.698 87.2331 129.414Z" fill="#FEE9B4"/>
<path d="M95.4552 134.326L92.1164 140.021C91.696 140.738 91.9365 141.66 92.6535 142.08L98.3479 145.419C99.0649 145.839 99.987 145.599 100.407 144.882L103.746 139.188C104.167 138.471 103.926 137.548 103.209 137.128L97.5147 133.789C96.7977 133.369 95.8756 133.609 95.4552 134.326Z" fill="#FEE9B4"/>
<path d="M75.976 81.252L58.563 108.561C57.8388 109.695 56.6945 110.495 55.3811 110.786C54.0677 111.077 52.6924 110.836 51.557 110.114L34.021 98.931L56.888 63.073L74.423 74.246C75.5559 74.9709 76.3555 76.1151 76.6466 77.4282C76.9376 78.7413 76.6965 80.1163 75.976 81.252Z" fill="#7BDE9E"/>
<path d="M75.97 81.25L72.75 86.31C73.0963 85.2415 73.078 84.0882 72.6979 83.0312C72.3178 81.9741 71.5975 81.0733 70.65 80.47L52.98 69.21L56.89 63.07L74.42 74.25H74.43C74.9909 74.6083 75.4758 75.0737 75.8568 75.6194C76.2379 76.1652 76.5076 76.7807 76.6507 77.4307C76.7938 78.0808 76.8075 78.7527 76.6908 79.408C76.5742 80.0633 76.3286 80.6892 75.97 81.25Z" fill="#A7E9BF"/>
<path d="M61.28 104.3L58.57 108.56C57.8443 109.693 56.6991 110.492 55.3852 110.783C54.0713 111.074 52.6959 110.832 51.56 110.11L34.03 98.93L37.45 93.57L55.12 104.85C56.0641 105.449 57.1796 105.72 58.2934 105.621C59.4072 105.521 60.4571 105.057 61.28 104.3Z" fill="#50D27E"/>
<path d="M159.987 91.363L142.921 103.251C141.815 104.017 140.45 104.314 139.126 104.077C137.801 103.84 136.625 103.087 135.854 101.984L117.348 75.41C116.582 74.304 116.285 72.9393 116.522 71.6148C116.759 70.2903 117.512 69.1139 118.615 68.343L135.68 56.465L159.987 91.363Z" fill="#7AD1F9"/>
<path d="M159.99 91.37L142.92 103.24L142.91 103.25C142.363 103.63 141.747 103.899 141.096 104.041C140.445 104.183 139.772 104.195 139.117 104.077C138.461 103.959 137.835 103.713 137.275 103.354C136.714 102.994 136.23 102.527 135.85 101.98L132.42 97.06C133.259 97.9227 134.377 98.4595 135.574 98.5749C136.772 98.6903 137.972 98.3767 138.96 97.69L156.09 85.77L159.99 91.37Z" fill="#4CC3F7"/>
<path d="M139.37 61.77L122.25 73.7C121.262 74.3895 120.553 75.4092 120.251 76.5753C119.948 77.7414 120.072 78.9772 120.6 80.06L117.35 75.4C116.583 74.2978 116.285 72.9361 116.521 71.6143C116.757 70.2924 117.509 69.1183 118.61 68.35L135.68 56.46L139.37 61.77Z" fill="#A6E1FB"/>
<path d="M160.816 90.782L136.516 55.875C136.361 55.6528 136.125 55.501 135.858 55.453C135.726 55.4288 135.591 55.4312 135.46 55.4601C135.329 55.4889 135.205 55.5436 135.095 55.621L118.034 67.507C116.834 68.3394 115.973 69.5765 115.611 70.9915C115.248 72.4066 115.408 73.905 116.06 75.212L111.149 78.045H100.149L90.7221 75.545C90.6015 75.5147 90.476 75.509 90.3532 75.5283C90.2304 75.5475 90.1127 75.5913 90.0071 75.657L79.1311 82.457L77.0921 81.349C77.7953 79.9959 77.9676 78.429 77.5753 76.9554C77.1829 75.4819 76.2541 74.2081 74.9711 73.384L57.4361 62.211C57.2077 62.0662 56.9313 62.0177 56.6672 62.0762C56.4032 62.1347 56.173 62.2953 56.0271 62.523L33.1601 98.381C33.0146 98.6093 32.9657 98.886 33.024 99.1503C33.0823 99.4147 33.2431 99.6451 33.4711 99.791L51.0111 110.977C52.1526 111.7 53.5015 112.024 54.8468 111.899C56.1921 111.773 57.4579 111.205 58.4461 110.284L64.6391 113.811L68.0301 122.573L66.7541 124.759C66.5923 125.031 66.4863 125.333 66.4423 125.647C66.3984 125.961 66.4173 126.281 66.4981 126.587C66.6602 127.205 67.0603 127.734 67.6111 128.058L73.3111 131.397C73.679 131.614 74.099 131.727 74.5261 131.724C74.5982 131.722 74.67 131.715 74.7411 131.703C74.924 132.248 75.2971 132.708 75.7921 133L81.4811 136.339C81.8483 136.559 82.2681 136.675 82.6961 136.676C82.7671 136.676 82.8491 136.646 82.9211 136.646C83.1029 137.192 83.4762 137.654 83.9721 137.946L89.6611 141.285C90.0295 141.503 90.4491 141.619 90.8771 141.622C90.9581 141.622 91.0301 141.602 91.1011 141.602C91.2858 142.147 91.6589 142.608 92.1531 142.902L97.8421 146.241C98.2112 146.455 98.6304 146.568 99.0571 146.568C99.2643 146.571 99.4708 146.544 99.6701 146.487C99.977 146.409 100.265 146.27 100.518 146.078C100.77 145.887 100.982 145.647 101.14 145.373L102.274 143.453L104.848 145.036C105.897 145.676 107.121 145.968 108.345 145.871C109.57 145.774 110.732 145.292 111.667 144.495C112.601 143.697 113.26 142.625 113.548 141.431C113.837 140.237 113.74 138.982 113.273 137.846C114.301 137.9 115.324 137.672 116.233 137.188C117.142 136.705 117.902 135.983 118.431 135.1C118.835 134.454 119.107 133.734 119.23 132.981C119.352 132.229 119.324 131.46 119.146 130.719C119.006 130.145 118.782 129.594 118.482 129.085C119.243 129.007 119.981 128.779 120.655 128.416C121.328 128.052 121.923 127.56 122.406 126.966C122.889 126.373 123.25 125.69 123.469 124.957C123.688 124.224 123.76 123.455 123.682 122.694C123.656 122.45 123.616 122.207 123.56 121.968C123.431 121.404 123.213 120.864 122.916 120.368C124.454 120.234 125.876 119.496 126.869 118.314C127.863 117.133 128.347 115.606 128.216 114.068C128.193 113.799 128.151 113.531 128.09 113.268C127.828 112.146 127.24 111.126 126.4 110.337L134.852 102.353L135.008 102.577C135.461 103.236 136.04 103.799 136.712 104.232C137.384 104.665 138.136 104.96 138.923 105.1C139.286 105.166 139.654 105.2 140.023 105.2C141.265 105.199 142.477 104.815 143.493 104.1L160.559 92.2C160.781 92.0457 160.932 91.8099 160.98 91.5441C161.029 91.2783 160.97 91.0043 160.816 90.782ZM57.7001 108.012C57.121 108.916 56.2077 109.554 55.1596 109.786C54.1116 110.019 53.0142 109.827 52.1071 109.253L35.4311 98.618L57.2001 64.483L73.8721 75.106C74.7771 75.6859 75.4158 76.6004 75.6485 77.6498C75.8812 78.6991 75.6891 79.7979 75.1141 80.706L57.7001 108.012ZM74.9341 129.7C74.9141 129.72 74.9141 129.751 74.8931 129.771C74.8314 129.827 74.7584 129.869 74.6791 129.894C74.5231 129.925 74.3613 129.903 74.2191 129.832L68.5311 126.5C68.3959 126.417 68.2973 126.285 68.2551 126.132C68.2343 126.057 68.2289 125.978 68.2394 125.901C68.2499 125.824 68.276 125.75 68.3161 125.683L71.6561 119.983C71.7366 119.847 71.8676 119.748 72.0206 119.708C72.1736 119.668 72.3362 119.69 72.4731 119.769L78.1611 123.1C78.2773 123.17 78.366 123.278 78.4126 123.405C78.4591 123.532 78.4607 123.672 78.4171 123.8C78.362 123.861 78.3141 123.928 78.2741 124L74.9341 129.7ZM83.1151 134.643C83.0941 134.674 83.0941 134.694 83.0741 134.724C83.0092 134.779 82.9321 134.818 82.8491 134.837C82.774 134.857 82.6955 134.862 82.6184 134.852C82.5413 134.841 82.4671 134.816 82.4001 134.776L76.7111 131.436C76.575 131.356 76.4761 131.225 76.436 131.072C76.3959 130.919 76.4179 130.756 76.4971 130.619L79.8361 124.919C79.9204 124.787 80.0521 124.692 80.2041 124.654C80.2533 124.637 80.3052 124.63 80.3571 124.633C80.4631 124.629 80.5678 124.658 80.6571 124.715L86.3461 128.055C86.4616 128.124 86.5499 128.231 86.5963 128.357C86.6427 128.483 86.6444 128.622 86.6011 128.749C86.5482 128.812 86.5004 128.879 86.4581 128.949L83.1151 134.643ZM91.2851 139.586C91.2767 139.614 91.2663 139.641 91.2541 139.668C91.1599 139.743 91.0452 139.788 90.925 139.797C90.8047 139.807 90.6846 139.779 90.5801 139.719L84.8921 136.379C84.7558 136.299 84.6567 136.168 84.6164 136.015C84.5762 135.862 84.598 135.699 84.6771 135.562L88.0171 129.873C88.0553 129.804 88.1078 129.743 88.171 129.696C88.2343 129.649 88.3069 129.615 88.3841 129.598C88.4346 129.586 88.4862 129.579 88.5381 129.577C88.6435 129.578 88.7469 129.606 88.8381 129.659L94.5221 133C94.6573 133.083 94.7559 133.214 94.7981 133.367C94.8219 133.476 94.815 133.589 94.7781 133.694C94.7271 133.766 94.6781 133.827 94.6251 133.894L91.2851 139.586ZM102.917 138.761L99.5781 144.461C99.4939 144.593 99.3622 144.689 99.2101 144.727C99.135 144.748 99.0565 144.753 98.9793 144.743C98.9021 144.732 98.8279 144.706 98.7611 144.666L93.0721 141.326C93.0043 141.288 92.9448 141.237 92.8973 141.176C92.8499 141.115 92.8154 141.044 92.7961 140.969C92.7754 140.892 92.7702 140.812 92.7808 140.733C92.7915 140.654 92.8177 140.578 92.8581 140.509L96.2001 134.818C96.2527 134.729 96.3272 134.654 96.4167 134.602C96.5061 134.549 96.6074 134.52 96.7111 134.518C96.8181 134.521 96.9229 134.549 97.0171 134.6L102.706 137.94C102.841 138.023 102.94 138.154 102.982 138.307C103.003 138.383 103.008 138.463 102.997 138.541C102.986 138.619 102.959 138.694 102.917 138.761ZM125.825 116.67C125.555 117.113 125.2 117.498 124.781 117.804C124.361 118.11 123.886 118.33 123.382 118.452C122.877 118.574 122.354 118.595 121.841 118.515C121.329 118.435 120.837 118.254 120.394 117.984L120.372 117.971C120.368 117.967 120.363 117.964 120.358 117.963C120.353 117.961 120.348 117.96 120.342 117.961L111.067 112.4C110.861 112.275 110.614 112.238 110.381 112.295C110.147 112.353 109.946 112.501 109.821 112.707C109.697 112.913 109.659 113.16 109.717 113.394C109.774 113.627 109.922 113.828 110.128 113.953L119.422 119.519C119.43 119.52 119.437 119.523 119.442 119.529L119.993 119.886C120.896 120.441 121.542 121.333 121.789 122.364C122.035 123.395 121.862 124.482 121.307 125.386L121.293 125.409C120.938 125.986 120.441 126.462 119.849 126.791C119.257 127.12 118.59 127.292 117.913 127.289C117.374 127.29 116.841 127.175 116.35 126.952L105.44 120.286C105.232 120.162 104.984 120.125 104.75 120.182C104.515 120.24 104.312 120.387 104.184 120.592C104.06 120.798 104.023 121.045 104.081 121.278C104.138 121.511 104.285 121.713 104.49 121.838L115.408 128.507C115.458 128.557 115.512 128.601 115.571 128.64C116.446 129.198 117.069 130.075 117.308 131.085C117.548 132.095 117.385 133.158 116.854 134.05C116.323 134.942 115.466 135.592 114.464 135.862C113.462 136.133 112.394 136.003 111.486 135.5L101.569 129.2C101.37 129.083 101.134 129.046 100.909 129.096C100.684 129.147 100.486 129.282 100.357 129.473C100.227 129.665 100.176 129.898 100.213 130.126C100.25 130.354 100.372 130.559 100.555 130.7L100.599 130.728L110.455 137C111.226 137.65 111.722 138.566 111.846 139.566C111.97 140.566 111.712 141.576 111.124 142.394C110.535 143.212 109.66 143.778 108.672 143.978C107.685 144.179 106.658 143.999 105.797 143.475L103.197 141.875L104.484 139.68C104.807 139.128 104.898 138.471 104.737 137.853C104.576 137.234 104.177 136.705 103.626 136.38L97.9381 133.04C97.4984 132.788 96.9917 132.678 96.4871 132.724C96.3102 132.181 95.9392 131.723 95.4451 131.437L89.7531 128.1C89.3132 127.839 88.8006 127.728 88.2921 127.783C88.1161 127.24 87.75 126.778 87.2611 126.483L81.5731 123.143C81.1387 122.888 80.6336 122.781 80.1331 122.837C79.9509 122.291 79.5772 121.829 79.0811 121.537L73.3921 118.2C73.1197 118.038 72.8177 117.932 72.5038 117.888C72.1899 117.845 71.8704 117.864 71.5641 117.945C70.946 118.107 70.4171 118.507 70.0931 119.058L69.2051 120.57L66.2121 112.849C66.1379 112.653 65.996 112.49 65.8121 112.389L59.5851 108.851L76.1391 82.9L78.7331 84.311C78.8756 84.3866 79.0355 84.4235 79.1967 84.4181C79.358 84.4126 79.515 84.365 79.6521 84.28L90.6411 77.4L97.8721 79.32L86.6891 86.9C86.5372 87.0022 86.4198 87.1479 86.3521 87.318L78.9521 106.263C78.8973 106.402 78.8777 106.552 78.8951 106.7C78.9126 106.848 78.9665 106.989 79.0521 107.111C79.1402 107.231 79.2555 107.329 79.3886 107.397C79.5217 107.464 79.6689 107.499 79.8181 107.499L84.7811 107.377C87.1327 107.197 89.3782 106.325 91.2339 104.869C93.0897 103.414 94.4723 101.441 95.2071 99.2L96.7121 94.58L124.528 111.17C124.979 111.446 125.37 111.81 125.679 112.239C125.988 112.668 126.209 113.155 126.328 113.67C126.448 114.178 126.466 114.706 126.38 115.221C126.293 115.736 126.105 116.229 125.825 116.67ZM124.89 109.26L97.9301 93.21L104.95 88.7C105.152 88.5682 105.294 88.3618 105.345 88.1257C105.396 87.8896 105.351 87.6431 105.22 87.44C105.095 87.2393 104.896 87.0962 104.666 87.0422C104.436 86.9882 104.194 87.0277 103.993 87.152L103.98 87.16L103.97 87.17L95.8701 92.41C95.7505 92.4586 95.6424 92.5318 95.5528 92.6248C95.4632 92.7178 95.3942 92.8286 95.3501 92.95L93.4801 98.63C92.8649 100.525 91.7014 102.195 90.1367 103.429C88.572 104.662 86.6765 105.404 84.6901 105.56L81.1301 105.65L87.9501 88.25L100.3 79.86H111.39C111.551 79.8607 111.71 79.8194 111.85 79.74L117.04 76.74L133.8 100.82L124.89 109.26ZM142.328 102.407C141.894 102.711 141.404 102.926 140.886 103.041C140.368 103.155 139.833 103.167 139.311 103.074C138.789 102.982 138.29 102.788 137.843 102.503C137.396 102.218 137.01 101.847 136.706 101.413L136.693 101.394L118.193 74.819C117.579 73.9401 117.34 72.8533 117.528 71.7979C117.715 70.7425 118.314 69.8047 119.193 69.191L119.202 69.185L135.43 57.885L158.559 91.116L142.328 102.407Z" fill="#333333"/>
</g>
<defs>
<filter id="filter0_i_506_46" x="14" y="14" width="169" height="169" filterUnits="userSpaceOnUse" color-interpolation-filters="sRGB">
<feFlood flood-opacity="0" result="BackgroundImageFix"/>
<feBlend mode="normal" in="SourceGraphic" in2="BackgroundImageFix" result="shape"/>
<feColorMatrix in="SourceAlpha" type="matrix" values="0 0 0 0 0 0 0 0 0 0 0 0 0 0 0 0 0 0 127 0" result="hardAlpha"/>
<feOffset dx="2" dy="2"/>
<feGaussianBlur stdDeviation="2"/>
<feComposite in2="hardAlpha" operator="arithmetic" k2="-1" k3="1"/>
<feColorMatrix type="matrix" values="0 0 0 0 0 0 0 0 0 0 0 0 0 0 0 0 0 0 0.3 0"/>
<feBlend mode="normal" in2="shape" result="effect1_innerShadow_506_46"/>
</filter>
<filter id="filter1_dd_506_46" x="0" y="0" width="195" height="195" filterUnits="userSpaceOnUse" color-interpolation-filters="sRGB">
<feFlood flood-opacity="0" result="BackgroundImageFix"/>
<feColorMatrix in="SourceAlpha" type="matrix" values="0 0 0 0 0 0 0 0 0 0 0 0 0 0 0 0 0 0 127 0" result="hardAlpha"/>
<feOffset dx="7" dy="7"/>
<feGaussianBlur stdDeviation="15"/>
<feColorMatrix type="matrix" values="0 0 0 0 0.121569 0 0 0 0 0.141176 0 0 0 0 0.152941 0 0 0 1 0"/>
<feBlend mode="normal" in2="BackgroundImageFix" result="effect1_dropShadow_506_46"/>
<feColorMatrix in="SourceAlpha" type="matrix" values="0 0 0 0 0 0 0 0 0 0 0 0 0 0 0 0 0 0 127 0" result="hardAlpha"/>
<feOffset dx="-7" dy="-7"/>
<feGaussianBlur stdDeviation="15"/>
<feColorMatrix type="matrix" values="0 0 0 0 0.282353 0 0 0 0 0.313726 0 0 0 0 0.341176 0 0 0 1 0"/>
<feBlend mode="normal" in2="effect1_dropShadow_506_46" result="effect2_dropShadow_506_46"/>
<feBlend mode="normal" in="SourceGraphic" in2="effect2_dropShadow_506_46" result="shape"/>
</filter>
<radialGradient id="paint0_radial_506_46" cx="0" cy="0" r="1" gradientUnits="userSpaceOnUse" gradientTransform="translate(97.5 97.5) rotate(56.3484) scale(99.1083 75.7165)">
<stop stop-color="#2E3134"/>
<stop offset="1" stop-color="#292B2E"/>
</radialGradient>
<linearGradient id="paint1_linear_506_46" x1="-431.286" y1="389.528" x2="-332.028" y2="474.606" gradientUnits="userSpaceOnUse">
<stop stop-color="#2C3036"/>
<stop offset="1" stop-color="#212428"/>
</linearGradient>
<clipPath id="clip0_506_46">
<rect width="128" height="128" fill="white" transform="translate(33 37)"/>
</clipPath>
</defs>
</svg>
