<svg width="195" height="195" viewBox="0 0 195 195" fill="none" xmlns="http://www.w3.org/2000/svg">
<g filter="url(#filter0_i_502_154)">
<circle cx="97.5" cy="97.5" r="82.5" fill="url(#paint0_radial_502_154)"/>
</g>
<circle cx="97.5" cy="97.5" r="83" stroke="#272829"/>
<g filter="url(#filter1_dd_502_154)">
<path d="M97.5 158C64.0868 158 37 130.913 37 97.5V97.5C37 64.0868 64.0868 37 97.5 37V37C130.913 37 158 64.0868 158 97.5V97.5C158 130.913 130.913 158 97.5 158V158Z" fill="url(#paint1_linear_502_154)"/>
<path d="M157.5 97.5C157.5 130.637 130.637 157.5 97.5 157.5C64.3629 157.5 37.5 130.637 37.5 97.5C37.5 64.3629 64.3629 37.5 97.5 37.5C130.637 37.5 157.5 64.3629 157.5 97.5Z" stroke="#2C3036"/>
</g>
<path d="M126.515 95.9743C126.515 96.4561 126.503 96.9319 126.478 97.4075C126.35 100.207 125.844 102.909 125.009 105.458C123.179 111.063 119.776 115.948 115.318 119.601C110.054 123.901 103.333 126.487 96.0024 126.487C79.1512 126.487 65.4897 112.825 65.4897 95.9742C65.4897 87.3504 69.0637 79.5682 74.8149 74.0183C76.9037 71.997 79.2719 70.2861 81.847 68.9379C84.2438 67.6815 86.8297 66.73 89.5498 66.1507C91.6699 65.6914 93.8331 65.4604 96.0024 65.4615C96.5574 65.4615 97.1124 65.4737 97.6613 65.5103C105.614 65.9311 112.762 69.4076 117.952 74.7805C119.826 76.7163 121.433 78.8923 122.734 81.2514C124.124 83.7679 125.147 86.4707 125.771 89.2774C126.267 91.4751 126.516 93.7213 126.515 95.9743Z" fill="#A1D51C"/>
<path d="M126.515 95.9743C126.515 96.4561 126.503 96.9319 126.478 97.4075C126.35 100.207 125.844 102.909 125.009 105.458C123.179 111.063 119.776 115.948 115.318 119.601C110.054 123.901 103.333 126.487 96.0024 126.487C79.1512 126.487 65.4897 112.825 65.4897 95.9742C65.4897 87.3504 69.0637 79.5682 74.8149 74.0183C76.9037 71.997 79.2719 70.2861 81.847 68.9379C84.2438 67.6815 86.8297 66.73 89.5498 66.1507C91.6699 65.6914 93.8331 65.4604 96.0024 65.4615C96.5574 65.4615 97.1124 65.4737 97.6613 65.5103C105.614 65.9311 112.762 69.4076 117.952 74.7805C119.826 76.7163 121.433 78.8923 122.734 81.2514C124.124 83.7679 125.147 86.4707 125.771 89.2774C126.267 91.4751 126.516 93.7213 126.515 95.9743Z" fill="#A1D51C"/>
<path d="M126.515 95.9743C126.515 96.4576 126.503 96.9334 126.48 97.4089C126.352 100.209 125.846 102.908 125.01 105.456C123.177 111.063 119.774 115.947 115.316 119.602C114.865 117.104 114.163 114.657 113.22 112.301C112.117 109.545 110.695 106.929 108.982 104.505C107.415 102.285 105.618 100.237 103.622 98.395C101.617 96.5434 99.4182 94.9136 97.0635 93.5341C103.521 86.4961 112.589 81.8905 122.733 81.2526C124.124 83.7684 125.147 86.4705 125.772 89.2766C126.26 91.4382 126.515 93.6734 126.515 95.9743Z" fill="#96BF16"/>
<path d="M125.009 105.458C123.179 111.063 119.776 115.948 115.318 119.601C114.867 117.103 114.164 114.657 113.22 112.301C115.604 108.257 119.99 105.525 125.009 105.458Z" fill="#A1D51C"/>
<path d="M122.733 81.2526C118.172 81.5337 113.7 82.6395 109.534 84.5163C106.121 86.0548 102.953 88.086 100.13 90.5449C99.0511 91.4845 98.0262 92.4784 97.0633 93.5341C92.9411 91.1057 88.3316 89.4352 83.4089 88.7043C79.5225 84.5704 76.5527 79.5665 74.8164 74.0174C76.9051 71.9966 79.2725 70.2854 81.8466 68.9361C84.2441 67.6831 86.8311 66.732 89.5496 66.1519C91.6301 65.6994 93.7878 65.4636 96.0036 65.4636C96.5566 65.4636 97.1135 65.4751 97.6626 65.51C105.613 65.9316 112.763 69.408 117.953 74.7792C119.825 76.7164 121.432 78.8931 122.733 81.2526Z" fill="#96BF16"/>
<path d="M117.952 74.7807C115.97 75.8723 113.689 76.4944 111.268 76.4944C104.602 76.4944 99.0153 71.78 97.6614 65.5103C105.614 65.9313 112.762 69.4075 117.952 74.7807Z" fill="#A1D51C"/>
<path d="M79.7696 112.718L84.0812 105.405L106.514 67.323L108.784 63.4715C110.238 61.0005 113.42 60.1768 115.891 61.6309C117.504 62.5823 118.447 64.2991 118.447 66.109C118.447 66.5576 118.389 67.01 118.27 67.4586L117.891 68.8546C117.72 69.4926 116.866 69.6125 116.526 69.048L115.365 67.1222C114.867 66.3178 113.745 66.3489 113.289 67.1299L111.707 69.8137L110.234 72.3156C109.874 72.9241 109.699 73.6242 109.731 74.3303L109.832 76.6969C109.859 77.4031 109.683 78.1024 109.325 78.7116L91.359 109.21L87.1904 116.287L82.9135 123.546L81.1772 126.492C80.0287 128.445 77.5151 129.095 75.5623 127.946C74.263 127.18 73.5398 125.812 73.5398 124.408C73.5398 123.7 73.7253 122.985 74.1083 122.331L76.038 119.052H76.0419L79.7696 112.718Z" fill="#EEF0EE"/>
<path d="M91.6491 126.175C91.4828 118.642 85.3034 112.571 77.724 112.571C75.4618 112.571 73.3273 113.112 71.4439 114.075C69.8273 111.896 68.5135 109.508 67.5382 106.975C66.5331 104.392 65.8927 101.681 65.6357 98.9205C65.538 97.9413 65.489 96.9579 65.4888 95.9738C65.4889 94.0021 65.6793 92.035 66.0573 90.0999C69.7348 88.9165 73.6559 88.2824 77.7317 88.2824C82.9444 88.2824 87.9135 89.3265 92.438 91.2175C94.9704 92.2737 97.3808 93.6014 99.6269 95.1773C107.701 100.831 113.486 109.528 115.319 119.601C113.042 121.454 110.501 122.997 107.755 124.137C105.238 125.193 102.554 125.912 99.7467 126.26C98.5209 126.407 97.2718 126.488 96.0034 126.488C94.5223 126.488 93.0682 126.384 91.6491 126.175Z" fill="#96BF16"/>
<path d="M75.517 91.4352C75.5117 91.3072 75.5575 91.1822 75.6443 91.0878C75.7311 90.9935 75.8518 90.9374 75.9798 90.932C76.611 90.9058 77.1641 90.893 77.6705 90.893C77.7987 90.893 77.9217 90.9439 78.0123 91.0346C78.1029 91.1252 78.1539 91.2481 78.1539 91.3763C78.1539 91.5045 78.1029 91.6274 78.0123 91.7181C77.9217 91.8087 77.7987 91.8596 77.6705 91.8596C77.1777 91.8596 76.6379 91.8721 76.0202 91.8979C75.9568 91.9006 75.8934 91.8908 75.8338 91.869C75.7742 91.8472 75.7194 91.8139 75.6727 91.7709C75.626 91.7279 75.5882 91.6762 75.5614 91.6186C75.5347 91.561 75.5196 91.4987 75.517 91.4352ZM84.082 92.4393C82.9565 92.2288 81.8207 92.0775 80.6794 91.9859C80.6161 91.9809 80.5544 91.9635 80.4979 91.9347C80.4413 91.9058 80.391 91.8661 80.3498 91.8178C80.3086 91.7695 80.2774 91.7135 80.2578 91.6532C80.2383 91.5928 80.2308 91.5291 80.2358 91.4658C80.2569 91.1998 80.4918 91.003 80.756 91.0223C81.9313 91.1165 83.1009 91.2724 84.2598 91.4893C84.3841 91.5146 84.4935 91.5878 84.5643 91.693C84.6351 91.7983 84.6617 91.9271 84.6384 92.0518C84.615 92.1764 84.5436 92.287 84.4395 92.3594C84.3354 92.4319 84.207 92.4606 84.082 92.4393Z" fill="white"/>
<path d="M127.01 108.948C127.068 108.972 127.131 108.984 127.195 108.983C127.258 108.983 127.321 108.97 127.38 108.945C127.438 108.92 127.491 108.884 127.535 108.839C127.58 108.794 127.615 108.74 127.639 108.681C127.826 108.223 128 107.76 128.162 107.292C128.202 107.172 128.193 107.04 128.136 106.926C128.08 106.812 127.981 106.725 127.861 106.684C127.741 106.642 127.609 106.65 127.494 106.705C127.38 106.76 127.291 106.858 127.248 106.977C127.092 107.429 126.923 107.876 126.743 108.319C126.719 108.377 126.707 108.44 126.708 108.504C126.708 108.567 126.721 108.63 126.746 108.689C126.771 108.747 126.807 108.8 126.852 108.845C126.897 108.889 126.951 108.924 127.01 108.948ZM125.648 110.759C124.547 112.971 123.2 115.051 121.632 116.959C121.55 117.058 121.512 117.186 121.524 117.313C121.536 117.441 121.599 117.558 121.698 117.64C121.797 117.721 121.925 117.76 122.052 117.747C122.18 117.735 122.297 117.672 122.379 117.573C123.993 115.608 125.38 113.467 126.514 111.19C126.542 111.134 126.559 111.072 126.563 111.008C126.568 110.945 126.56 110.881 126.539 110.821C126.519 110.761 126.487 110.705 126.446 110.658C126.404 110.61 126.353 110.57 126.297 110.542C126.24 110.514 126.178 110.497 126.115 110.492C126.051 110.488 125.988 110.496 125.927 110.516C125.867 110.536 125.812 110.568 125.764 110.61C125.716 110.652 125.677 110.702 125.648 110.759ZM70.5822 74.7327C70.8666 74.3914 71.1584 74.0563 71.4575 73.7278C71.5002 73.6808 71.5332 73.6259 71.5547 73.5662C71.5761 73.5064 71.5856 73.443 71.5826 73.3796C71.5795 73.3162 71.564 73.254 71.5369 73.1966C71.5098 73.1392 71.4717 73.0877 71.4247 73.045C71.3778 73.0023 71.3228 72.9693 71.2631 72.9479C71.2033 72.9264 71.1399 72.917 71.0765 72.92C71.0131 72.923 70.951 72.9386 70.8935 72.9656C70.8361 72.9927 70.7846 73.0308 70.7419 73.0778C70.4333 73.4168 70.1321 73.7626 69.8387 74.1148C69.7567 74.2134 69.7173 74.3405 69.7291 74.4682C69.7409 74.5958 69.8029 74.7136 69.9015 74.7955C70.0001 74.8775 70.1272 74.9169 70.2548 74.9051C70.3825 74.8934 70.5003 74.8313 70.5822 74.7327ZM73.2272 71.924C75.0019 70.2366 76.9828 68.7402 79.1151 67.4768C79.1701 67.4447 79.2182 67.4019 79.2566 67.3511C79.295 67.3003 79.323 67.2424 79.339 67.1807C79.3549 67.1191 79.3585 67.0549 79.3496 66.9918C79.3406 66.9287 79.3193 66.8681 79.2868 66.8133C79.2544 66.7585 79.2114 66.7106 79.1604 66.6725C79.1093 66.6344 79.0513 66.6067 78.9895 66.5911C78.9278 66.5755 78.8635 66.5722 78.8005 66.5815C78.7375 66.5908 78.6769 66.6125 78.6223 66.6453C76.4275 67.9454 74.3883 69.4859 72.561 71.2235C72.515 71.2673 72.4781 71.3197 72.4524 71.3777C72.4266 71.4357 72.4125 71.4982 72.4109 71.5617C72.4093 71.6251 72.4203 71.6883 72.4431 71.7475C72.4659 71.8067 72.5001 71.8609 72.5439 71.9069C72.6322 71.9998 72.7539 72.0537 72.882 72.057C72.9455 72.0586 73.0086 72.0476 73.0678 72.0248C73.1271 72.002 73.1812 71.9678 73.2272 71.924Z" fill="black"/>
<path d="M140.51 132.602H128.664C127.763 132.603 126.888 132.303 126.176 131.751C125.464 131.199 124.955 130.426 124.731 129.553C124.159 127.33 122.156 125.778 119.861 125.778H104.478C108.525 124.626 112.332 122.664 115.624 119.975C122.85 114.054 126.998 105.283 126.998 95.9744C126.998 85.4654 121.67 75.4418 112.361 69.6544L113.704 67.3744C113.988 66.8911 114.663 66.9065 114.95 67.3701L116.112 69.297C116.671 70.2266 118.075 70.0325 118.358 68.9814L118.735 67.5827C119.398 65.1254 118.329 62.5068 116.137 61.2151C113.439 59.6266 109.955 60.5282 108.366 63.2245L106.296 66.7377C102.989 65.5738 99.5084 64.9789 96.0023 64.9783C79.0968 64.9783 65.0063 78.6245 65.0063 95.9744C65.0063 105.177 69.0449 113.447 75.4342 119.129L73.6928 122.085C72.4066 124.269 73.1326 127.077 75.3164 128.363C77.5081 129.654 80.3193 128.904 81.5945 126.739L83.1147 124.159C87.0416 125.962 91.406 126.97 96.0022 126.97C98.2893 126.97 99.4513 126.745 99.747 126.745H119.861C120.762 126.745 121.637 127.044 122.349 127.596C123.061 128.148 123.57 128.922 123.794 129.794C124.366 132.017 126.369 133.57 128.664 133.57H140.51C140.638 133.57 140.761 133.519 140.852 133.428C140.943 133.337 140.994 133.214 140.994 133.086C140.994 132.958 140.943 132.835 140.852 132.744C140.761 132.653 140.638 132.602 140.51 132.602ZM66.1515 99.2229C69.8074 97.6542 73.6988 96.8593 77.724 96.8593C92.9815 96.8593 105.878 108.671 107.243 123.816C104.983 124.726 102.621 125.358 100.209 125.7C99.7848 113.677 89.8175 103.986 77.724 103.986C74.2838 103.986 70.871 104.793 67.8091 106.306C66.9467 103.963 66.395 101.536 66.1515 99.2229ZM65.9733 95.9743C65.9733 94.1852 66.1256 92.3971 66.4796 90.4729C70.0972 89.3399 73.881 88.7656 77.7319 88.7656C82.7659 88.7656 87.6511 89.7405 92.2519 91.6635C94.752 92.7067 97.1317 94.0176 99.3496 95.5731C107.477 101.264 112.952 109.716 114.79 119.4C112.766 121.021 110.54 122.372 108.168 123.421C106.611 107.931 93.3747 95.8925 77.724 95.8925C73.6718 95.8925 69.7529 96.6826 66.0592 98.223C66.0027 97.4747 65.974 96.7247 65.9733 95.9743ZM74.6033 74.9214C76.2204 79.7234 78.8161 84.2243 82.17 88.0519C80.6966 87.8837 79.2148 87.7992 77.7317 87.7988C73.9608 87.7988 70.2541 88.3439 66.6957 89.4045C67.9007 83.965 70.6035 78.9807 74.6033 74.9214ZM81.5271 69.6637C83.2909 77.0941 87.7373 83.5001 93.9159 87.7546L92.232 90.6132C89.471 89.4927 86.5885 88.6987 83.6431 88.2475C79.9009 84.2272 77.0457 79.367 75.3683 74.1632C77.2198 72.4054 79.2897 70.8932 81.5271 69.6637ZM98.0283 80.7734L94.409 86.9175C88.3881 82.7509 84.0632 76.4761 82.4006 69.2006C84.5609 68.1017 86.8333 67.2741 89.1699 66.7346C90.2529 72.5339 93.4995 77.4845 98.0283 80.7734ZM106.454 84.5388C106.907 84.6375 107.364 84.7238 107.826 84.7955C107.064 85.1789 106.315 85.5876 105.581 86.021L106.454 84.5388ZM104.514 87.8322C109.835 84.328 115.975 82.217 122.454 81.7549C123.649 83.9731 124.557 86.3349 125.154 88.7829C117.008 88.7911 109.382 91.9657 103.614 97.7247C102.548 96.7704 101.431 95.8748 100.267 95.0418L104.514 87.8322ZM115.635 118.697C115.194 116.528 114.567 114.4 113.762 112.338C116.033 108.645 120.012 106.255 124.32 105.969C122.646 110.72 119.728 115.156 115.635 118.697ZM124.647 104.991C120.112 105.167 115.873 107.516 113.317 111.25C112.312 108.893 111.072 106.644 109.616 104.536C114.008 99.9232 120.109 97.624 125.966 97.863C125.818 100.284 125.375 102.678 124.647 104.991ZM126.008 96.8992C119.951 96.6528 113.647 98.995 109.052 103.74C107.645 101.809 106.061 100.012 104.321 98.3739C109.945 92.7741 117.398 89.7019 125.377 89.7494C125.812 91.7959 126.031 93.8823 126.032 95.9744C126.032 96.2835 126.018 96.5911 126.008 96.8992ZM121.935 80.8297C117.634 81.1868 113.482 82.2502 109.616 83.9531C109.561 83.9762 109.506 83.9982 109.451 84.0226C108.617 83.9523 107.788 83.8334 106.968 83.6666L109.743 78.9558C110.105 78.3399 110.291 77.6457 110.305 76.9356C112.934 77.1336 115.569 76.5523 117.848 75.3761C119.413 77.0324 120.785 78.8622 121.935 80.8297ZM117.144 74.6554C115.039 75.6833 112.631 76.1613 110.283 75.9628L110.213 74.3079C110.186 73.6948 110.338 73.0873 110.65 72.5589L111.871 70.4867C113.779 71.6747 115.548 73.073 117.144 74.6554ZM109.199 63.715C110.511 61.488 113.399 60.7247 115.646 62.048C117.465 63.1197 118.352 65.292 117.802 67.3308L117.425 68.7295C117.363 68.9588 117.06 68.9967 116.939 68.7976L115.775 66.8658C115.089 65.7572 113.516 65.7886 112.871 66.8834L109.817 72.0681C109.411 72.7571 109.212 73.5492 109.247 74.3484L109.347 76.7162C109.373 77.3292 109.221 77.9367 108.91 78.4652L99.4721 94.4865C97.473 93.1247 95.35 91.9544 93.1314 90.991L109.199 63.715ZM102.679 72.8774C100.59 71.1367 99.0181 68.7721 98.2865 66.0395C100.845 66.2314 103.369 66.752 105.795 67.5884L102.679 72.8774ZM97.2755 65.9727C98.034 69.0881 99.8048 71.7754 102.186 73.7159L98.5213 79.9368C94.2211 76.7844 91.1346 72.0643 90.1083 66.5372C92.0393 66.1498 94.0185 65.9451 96.0025 65.9451C96.427 65.9441 96.8514 65.9533 97.2755 65.9727ZM72.2042 114.253C73.9361 113.462 75.7886 113.054 77.724 113.054C78.1462 113.054 78.5637 113.076 78.9767 113.115L75.9342 118.28C74.5717 117.053 73.3233 115.706 72.2042 114.253ZM80.7618 126.249C79.7468 127.972 77.5308 128.545 75.8073 127.53C74.0843 126.515 73.5106 124.299 74.5261 122.575L80.0152 113.257C82.4856 113.69 84.7377 114.806 86.561 116.404L80.7618 126.249ZM87.2812 117.086C89.4829 119.318 90.9195 122.305 91.1368 125.607C88.5372 125.181 86.0055 124.413 83.6079 123.322L87.2812 117.086ZM92.1171 125.75C91.7294 118.179 85.3585 112.087 77.724 112.087C75.5766 112.087 73.5216 112.548 71.6083 113.456C70.2123 111.516 69.0529 109.417 68.1547 107.203C71.1037 105.73 74.4024 104.953 77.724 104.953C89.3269 104.953 98.8927 114.272 99.2536 125.819C98.3226 125.921 97.3806 126.003 96.0025 126.003C94.7047 126.003 93.4476 125.922 92.1171 125.75Z" fill="black"/>
<defs>
<filter id="filter0_i_502_154" x="14" y="14" width="169" height="169" filterUnits="userSpaceOnUse" color-interpolation-filters="sRGB">
<feFlood flood-opacity="0" result="BackgroundImageFix"/>
<feBlend mode="normal" in="SourceGraphic" in2="BackgroundImageFix" result="shape"/>
<feColorMatrix in="SourceAlpha" type="matrix" values="0 0 0 0 0 0 0 0 0 0 0 0 0 0 0 0 0 0 127 0" result="hardAlpha"/>
<feOffset dx="2" dy="2"/>
<feGaussianBlur stdDeviation="2"/>
<feComposite in2="hardAlpha" operator="arithmetic" k2="-1" k3="1"/>
<feColorMatrix type="matrix" values="0 0 0 0 0 0 0 0 0 0 0 0 0 0 0 0 0 0 0.3 0"/>
<feBlend mode="normal" in2="shape" result="effect1_innerShadow_502_154"/>
</filter>
<filter id="filter1_dd_502_154" x="0" y="0" width="195" height="195" filterUnits="userSpaceOnUse" color-interpolation-filters="sRGB">
<feFlood flood-opacity="0" result="BackgroundImageFix"/>
<feColorMatrix in="SourceAlpha" type="matrix" values="0 0 0 0 0 0 0 0 0 0 0 0 0 0 0 0 0 0 127 0" result="hardAlpha"/>
<feOffset dx="7" dy="7"/>
<feGaussianBlur stdDeviation="15"/>
<feColorMatrix type="matrix" values="0 0 0 0 0.121569 0 0 0 0 0.141176 0 0 0 0 0.152941 0 0 0 1 0"/>
<feBlend mode="normal" in2="BackgroundImageFix" result="effect1_dropShadow_502_154"/>
<feColorMatrix in="SourceAlpha" type="matrix" values="0 0 0 0 0 0 0 0 0 0 0 0 0 0 0 0 0 0 127 0" result="hardAlpha"/>
<feOffset dx="-7" dy="-7"/>
<feGaussianBlur stdDeviation="15"/>
<feColorMatrix type="matrix" values="0 0 0 0 0.282353 0 0 0 0 0.313726 0 0 0 0 0.341176 0 0 0 1 0"/>
<feBlend mode="normal" in2="effect1_dropShadow_502_154" result="effect2_dropShadow_502_154"/>
<feBlend mode="normal" in="SourceGraphic" in2="effect2_dropShadow_502_154" result="shape"/>
</filter>
<radialGradient id="paint0_radial_502_154" cx="0" cy="0" r="1" gradientUnits="userSpaceOnUse" gradientTransform="translate(97.5 97.5) rotate(56.3484) scale(99.1083 75.7165)">
<stop stop-color="#2E3134"/>
<stop offset="1" stop-color="#292B2E"/>
</radialGradient>
<linearGradient id="paint1_linear_502_154" x1="-431.286" y1="389.528" x2="-332.028" y2="474.606" gradientUnits="userSpaceOnUse">
<stop stop-color="#2C3036"/>
<stop offset="1" stop-color="#212428"/>
</linearGradient>
</defs>
</svg>
